<mxfile host="app.diagrams.net" modified="2022-03-09T11:26:47.265Z" agent="5.0 (Windows)" etag="Y9-qF6o5Uo9knG8ufCQO" version="17.0.0" type="github">
  <diagram id="6zQ4rV_S7pPLQLbRrb4X" name="Page-1">
    <mxGraphModel dx="900" dy="996" grid="1" gridSize="10" guides="1" tooltips="1" connect="1" arrows="1" fold="1" page="1" pageScale="1" pageWidth="850" pageHeight="1100" math="0" shadow="0">
      <root>
        <mxCell id="0" />
        <mxCell id="1" parent="0" />
        <mxCell id="B8lMyJI8ZmtMGigYOPFd-1" style="edgeStyle=orthogonalEdgeStyle;rounded=0;orthogonalLoop=1;jettySize=auto;html=1;exitX=1;exitY=0.5;exitDx=0;exitDy=0;exitPerimeter=0;entryX=0;entryY=0.5;entryDx=0;entryDy=0;strokeWidth=3;" edge="1" parent="1" source="B8lMyJI8ZmtMGigYOPFd-3" target="B8lMyJI8ZmtMGigYOPFd-9">
          <mxGeometry relative="1" as="geometry" />
        </mxCell>
        <mxCell id="B8lMyJI8ZmtMGigYOPFd-36" style="edgeStyle=orthogonalEdgeStyle;rounded=0;orthogonalLoop=1;jettySize=auto;html=1;exitX=0.5;exitY=1;exitDx=0;exitDy=0;exitPerimeter=0;entryX=0;entryY=0.5;entryDx=0;entryDy=0;entryPerimeter=0;strokeWidth=3;" edge="1" parent="1" source="B8lMyJI8ZmtMGigYOPFd-3" target="B8lMyJI8ZmtMGigYOPFd-26">
          <mxGeometry relative="1" as="geometry" />
        </mxCell>
        <mxCell id="B8lMyJI8ZmtMGigYOPFd-3" value="" style="strokeWidth=2;html=1;shape=mxgraph.flowchart.start_2;whiteSpace=wrap;" vertex="1" parent="1">
          <mxGeometry x="70" y="155" width="30" height="30" as="geometry" />
        </mxCell>
        <mxCell id="B8lMyJI8ZmtMGigYOPFd-4" value="" style="strokeWidth=2;html=1;shape=mxgraph.flowchart.start_2;whiteSpace=wrap;" vertex="1" parent="1">
          <mxGeometry x="435" y="404" width="50" height="50" as="geometry" />
        </mxCell>
        <mxCell id="B8lMyJI8ZmtMGigYOPFd-5" value="" style="strokeWidth=2;html=1;shape=mxgraph.flowchart.start_2;whiteSpace=wrap;fillColor=#000000;" vertex="1" parent="1">
          <mxGeometry x="445" y="414" width="30" height="30" as="geometry" />
        </mxCell>
        <mxCell id="B8lMyJI8ZmtMGigYOPFd-8" style="edgeStyle=orthogonalEdgeStyle;rounded=0;orthogonalLoop=1;jettySize=auto;html=1;exitX=1;exitY=0.5;exitDx=0;exitDy=0;entryX=0;entryY=0.5;entryDx=0;entryDy=0;fontSize=24;strokeWidth=3;" edge="1" parent="1" source="B8lMyJI8ZmtMGigYOPFd-9" target="B8lMyJI8ZmtMGigYOPFd-11">
          <mxGeometry relative="1" as="geometry" />
        </mxCell>
        <mxCell id="B8lMyJI8ZmtMGigYOPFd-9" value="&lt;font size=&quot;3&quot;&gt;&lt;font style=&quot;font-size: 24px&quot;&gt;loot_item&lt;/font&gt;&lt;/font&gt;" style="rounded=1;whiteSpace=wrap;html=1;fillColor=#FFFFFF;strokeWidth=3;" vertex="1" parent="1">
          <mxGeometry x="170" y="140" width="150" height="60" as="geometry" />
        </mxCell>
        <mxCell id="B8lMyJI8ZmtMGigYOPFd-27" style="edgeStyle=orthogonalEdgeStyle;rounded=0;orthogonalLoop=1;jettySize=auto;html=1;exitX=0.5;exitY=1;exitDx=0;exitDy=0;entryX=0.5;entryY=0;entryDx=0;entryDy=0;entryPerimeter=0;strokeWidth=3;" edge="1" parent="1" source="B8lMyJI8ZmtMGigYOPFd-11" target="B8lMyJI8ZmtMGigYOPFd-26">
          <mxGeometry relative="1" as="geometry" />
        </mxCell>
        <mxCell id="B8lMyJI8ZmtMGigYOPFd-42" style="edgeStyle=orthogonalEdgeStyle;rounded=0;orthogonalLoop=1;jettySize=auto;html=1;exitX=1;exitY=0.5;exitDx=0;exitDy=0;entryX=0.855;entryY=0.855;entryDx=0;entryDy=0;entryPerimeter=0;strokeWidth=3;" edge="1" parent="1" source="B8lMyJI8ZmtMGigYOPFd-11" target="B8lMyJI8ZmtMGigYOPFd-4">
          <mxGeometry relative="1" as="geometry">
            <Array as="points">
              <mxPoint x="730" y="170" />
              <mxPoint x="730" y="447" />
            </Array>
          </mxGeometry>
        </mxCell>
        <mxCell id="B8lMyJI8ZmtMGigYOPFd-11" value="&lt;div&gt;&lt;font size=&quot;3&quot;&gt;&lt;font style=&quot;font-size: 24px&quot;&gt;store_item&lt;/font&gt;&lt;/font&gt;&lt;/div&gt;" style="rounded=1;whiteSpace=wrap;html=1;fillColor=#FFFFFF;strokeWidth=3;" vertex="1" parent="1">
          <mxGeometry x="380" y="140" width="160" height="60" as="geometry" />
        </mxCell>
        <mxCell id="B8lMyJI8ZmtMGigYOPFd-41" style="edgeStyle=orthogonalEdgeStyle;rounded=0;orthogonalLoop=1;jettySize=auto;html=1;exitX=0.5;exitY=1;exitDx=0;exitDy=0;strokeWidth=3;" edge="1" parent="1" source="B8lMyJI8ZmtMGigYOPFd-13">
          <mxGeometry relative="1" as="geometry">
            <mxPoint x="480" y="420" as="targetPoint" />
            <Array as="points">
              <mxPoint x="636" y="420" />
            </Array>
          </mxGeometry>
        </mxCell>
        <mxCell id="B8lMyJI8ZmtMGigYOPFd-13" value="&lt;div&gt;&lt;font size=&quot;3&quot;&gt;&lt;font style=&quot;font-size: 24px&quot;&gt;swap_item&lt;/font&gt;&lt;/font&gt;&lt;/div&gt;" style="rounded=1;whiteSpace=wrap;html=1;fillColor=#FFFFFF;strokeWidth=3;" vertex="1" parent="1">
          <mxGeometry x="556" y="302" width="160" height="60" as="geometry" />
        </mxCell>
        <mxCell id="B8lMyJI8ZmtMGigYOPFd-39" style="edgeStyle=orthogonalEdgeStyle;rounded=0;orthogonalLoop=1;jettySize=auto;html=1;exitX=0.5;exitY=1;exitDx=0;exitDy=0;entryX=0.5;entryY=0;entryDx=0;entryDy=0;entryPerimeter=0;strokeWidth=3;" edge="1" parent="1" source="B8lMyJI8ZmtMGigYOPFd-16" target="B8lMyJI8ZmtMGigYOPFd-4">
          <mxGeometry relative="1" as="geometry" />
        </mxCell>
        <mxCell id="B8lMyJI8ZmtMGigYOPFd-16" value="&lt;div&gt;&lt;font size=&quot;3&quot;&gt;&lt;font style=&quot;font-size: 24px&quot;&gt;drop_item&lt;/font&gt;&lt;/font&gt;&lt;/div&gt;" style="rounded=1;whiteSpace=wrap;html=1;fillColor=#FFFFFF;strokeWidth=3;" vertex="1" parent="1">
          <mxGeometry x="381" y="302" width="160" height="60" as="geometry" />
        </mxCell>
        <mxCell id="B8lMyJI8ZmtMGigYOPFd-38" style="edgeStyle=orthogonalEdgeStyle;rounded=0;orthogonalLoop=1;jettySize=auto;html=1;exitX=0.5;exitY=1;exitDx=0;exitDy=0;entryX=0.5;entryY=0;entryDx=0;entryDy=0;strokeWidth=3;" edge="1" parent="1" source="B8lMyJI8ZmtMGigYOPFd-22" target="B8lMyJI8ZmtMGigYOPFd-37">
          <mxGeometry relative="1" as="geometry" />
        </mxCell>
        <mxCell id="B8lMyJI8ZmtMGigYOPFd-22" value="&lt;div&gt;&lt;font size=&quot;3&quot;&gt;&lt;font style=&quot;font-size: 24px&quot;&gt;use_item&lt;/font&gt;&lt;/font&gt;&lt;/div&gt;" style="rounded=1;whiteSpace=wrap;html=1;fillColor=#FFFFFF;strokeWidth=3;" vertex="1" parent="1">
          <mxGeometry x="206" y="302" width="160" height="60" as="geometry" />
        </mxCell>
        <mxCell id="B8lMyJI8ZmtMGigYOPFd-32" style="edgeStyle=orthogonalEdgeStyle;rounded=0;orthogonalLoop=1;jettySize=auto;html=1;exitX=0.145;exitY=0.855;exitDx=0;exitDy=0;exitPerimeter=0;strokeWidth=3;" edge="1" parent="1" source="B8lMyJI8ZmtMGigYOPFd-26" target="B8lMyJI8ZmtMGigYOPFd-22">
          <mxGeometry relative="1" as="geometry" />
        </mxCell>
        <mxCell id="B8lMyJI8ZmtMGigYOPFd-33" style="edgeStyle=orthogonalEdgeStyle;rounded=0;orthogonalLoop=1;jettySize=auto;html=1;exitX=0.5;exitY=1;exitDx=0;exitDy=0;exitPerimeter=0;entryX=0.5;entryY=0;entryDx=0;entryDy=0;strokeWidth=3;" edge="1" parent="1" source="B8lMyJI8ZmtMGigYOPFd-26" target="B8lMyJI8ZmtMGigYOPFd-16">
          <mxGeometry relative="1" as="geometry" />
        </mxCell>
        <mxCell id="B8lMyJI8ZmtMGigYOPFd-34" style="edgeStyle=orthogonalEdgeStyle;rounded=0;orthogonalLoop=1;jettySize=auto;html=1;exitX=0.855;exitY=0.855;exitDx=0;exitDy=0;exitPerimeter=0;entryX=0.5;entryY=0;entryDx=0;entryDy=0;strokeWidth=3;" edge="1" parent="1" source="B8lMyJI8ZmtMGigYOPFd-26" target="B8lMyJI8ZmtMGigYOPFd-13">
          <mxGeometry relative="1" as="geometry" />
        </mxCell>
        <mxCell id="B8lMyJI8ZmtMGigYOPFd-26" value="" style="strokeWidth=2;html=1;shape=mxgraph.flowchart.start_2;whiteSpace=wrap;" vertex="1" parent="1">
          <mxGeometry x="446" y="230" width="30" height="30" as="geometry" />
        </mxCell>
        <mxCell id="B8lMyJI8ZmtMGigYOPFd-40" style="edgeStyle=orthogonalEdgeStyle;rounded=0;orthogonalLoop=1;jettySize=auto;html=1;exitX=1;exitY=0.5;exitDx=0;exitDy=0;entryX=0;entryY=0.5;entryDx=0;entryDy=0;entryPerimeter=0;strokeWidth=3;" edge="1" parent="1" source="B8lMyJI8ZmtMGigYOPFd-37" target="B8lMyJI8ZmtMGigYOPFd-4">
          <mxGeometry relative="1" as="geometry" />
        </mxCell>
        <mxCell id="B8lMyJI8ZmtMGigYOPFd-37" value="&lt;div&gt;&lt;font size=&quot;3&quot;&gt;&lt;font style=&quot;font-size: 24px&quot;&gt;be_interacted&lt;/font&gt;&lt;/font&gt;&lt;/div&gt;" style="rounded=1;whiteSpace=wrap;html=1;fillColor=#FFFFFF;strokeWidth=3;" vertex="1" parent="1">
          <mxGeometry x="206" y="399" width="160" height="60" as="geometry" />
        </mxCell>
      </root>
    </mxGraphModel>
  </diagram>
</mxfile>
